%TF.GenerationSoftware,KiCad,Pcbnew,(6.0.7)*%
%TF.CreationDate,2022-09-27T15:13:33-05:00*%
%TF.ProjectId,adap1,61646170-312e-46b6-9963-61645f706362,rev?*%
%TF.SameCoordinates,Original*%
%TF.FileFunction,Copper,L2,Bot*%
%TF.FilePolarity,Positive*%
%FSLAX46Y46*%
G04 Gerber Fmt 4.6, Leading zero omitted, Abs format (unit mm)*
G04 Created by KiCad (PCBNEW (6.0.7)) date 2022-09-27 15:13:33*
%MOMM*%
%LPD*%
G01*
G04 APERTURE LIST*
%TA.AperFunction,ComponentPad*%
%ADD10R,3.000000X3.000000*%
%TD*%
%TA.AperFunction,ComponentPad*%
%ADD11C,3.000000*%
%TD*%
%TA.AperFunction,ComponentPad*%
%ADD12R,1.700000X1.700000*%
%TD*%
%TA.AperFunction,ComponentPad*%
%ADD13O,1.700000X1.700000*%
%TD*%
%TA.AperFunction,ComponentPad*%
%ADD14C,1.600000*%
%TD*%
%TA.AperFunction,ComponentPad*%
%ADD15O,1.600000X1.600000*%
%TD*%
%TA.AperFunction,ComponentPad*%
%ADD16R,2.600000X2.600000*%
%TD*%
%TA.AperFunction,ComponentPad*%
%ADD17C,2.600000*%
%TD*%
%TA.AperFunction,ComponentPad*%
%ADD18R,2.000000X1.905000*%
%TD*%
%TA.AperFunction,ComponentPad*%
%ADD19O,2.000000X1.905000*%
%TD*%
%TA.AperFunction,Conductor*%
%ADD20C,1.000000*%
%TD*%
%TA.AperFunction,Conductor*%
%ADD21C,2.000000*%
%TD*%
G04 APERTURE END LIST*
D10*
%TO.P,J4,1,Pin_1*%
%TO.N,/REL1*%
X157480000Y-100330000D03*
D11*
%TO.P,J4,2,Pin_2*%
%TO.N,/REL2*%
X162560000Y-100330000D03*
%TO.P,J4,3,Pin_3*%
%TO.N,/COM*%
X167640000Y-100330000D03*
%TO.P,J4,4,Pin_4*%
%TO.N,GND*%
X172720000Y-100330000D03*
%TD*%
D12*
%TO.P,J6,1,Pin_1*%
%TO.N,+3.3V*%
X142240000Y-85090000D03*
D13*
%TO.P,J6,2,Pin_2*%
%TO.N,/REL3*%
X144780000Y-85090000D03*
%TO.P,J6,3,Pin_3*%
%TO.N,/SEN*%
X147320000Y-85090000D03*
%TO.P,J6,4,Pin_4*%
%TO.N,GND*%
X149860000Y-85090000D03*
%TD*%
D10*
%TO.P,J3,1,Pin_1*%
%TO.N,/NC*%
X162560000Y-92710000D03*
D11*
%TO.P,J3,2,Pin_2*%
%TO.N,/COM*%
X167640000Y-92710000D03*
%TO.P,J3,3,Pin_3*%
%TO.N,+12V*%
X172720000Y-92710000D03*
%TD*%
D14*
%TO.P,R1,1*%
%TO.N,+3.3V*%
X139700000Y-91440000D03*
D15*
%TO.P,R1,2*%
%TO.N,/SEN*%
X147320000Y-91440000D03*
%TD*%
D16*
%TO.P,J1,1*%
%TO.N,+12V*%
X182880000Y-96520000D03*
D17*
%TO.P,J1,2*%
%TO.N,GND*%
X182880000Y-102520000D03*
%TO.P,J1,3*%
X187580000Y-99520000D03*
%TD*%
D10*
%TO.P,J5,1,Pin_1*%
%TO.N,+3.3V*%
X134620000Y-100330000D03*
D11*
%TO.P,J5,2,Pin_2*%
%TO.N,/SEN*%
X139700000Y-100330000D03*
%TO.P,J5,3,Pin_3*%
%TO.N,GND*%
X144780000Y-100330000D03*
%TO.P,J5,4,Pin_4*%
%TO.N,unconnected-(J5-Pad4)*%
X149860000Y-100330000D03*
%TD*%
D12*
%TO.P,J2,1,Pin_1*%
%TO.N,+5V*%
X152400000Y-82550000D03*
D13*
%TO.P,J2,2,Pin_2*%
%TO.N,GND*%
X149860000Y-82550000D03*
%TO.P,J2,3,Pin_3*%
%TO.N,/REL3*%
X147320000Y-82550000D03*
%TD*%
D18*
%TO.P,U2,1,VI*%
%TO.N,+12V*%
X177800000Y-87630000D03*
D19*
%TO.P,U2,2,GND*%
%TO.N,GND*%
X177800000Y-85090000D03*
%TO.P,U2,3,VO*%
%TO.N,+5V*%
X177800000Y-82550000D03*
%TD*%
D12*
%TO.P,J8,1,Pin_1*%
%TO.N,+5V*%
X182880000Y-82550000D03*
D13*
%TO.P,J8,2,Pin_2*%
%TO.N,GND*%
X182880000Y-85090000D03*
%TD*%
D12*
%TO.P,J7,1,Pin_1*%
%TO.N,+12V*%
X182880000Y-91440000D03*
D13*
%TO.P,J7,2,Pin_2*%
%TO.N,GND*%
X182880000Y-88900000D03*
%TD*%
D20*
%TO.N,+12V*%
X177800000Y-88900000D02*
X180340000Y-91440000D01*
D21*
X176530000Y-96520000D02*
X172720000Y-92710000D01*
X182880000Y-96520000D02*
X176530000Y-96520000D01*
D20*
X182880000Y-91440000D02*
X182880000Y-96520000D01*
X177800000Y-87630000D02*
X177800000Y-88900000D01*
X180340000Y-91440000D02*
X182880000Y-91440000D01*
%TO.N,GND*%
X182880000Y-102520000D02*
X184580000Y-102520000D01*
X182880000Y-85090000D02*
X182880000Y-88900000D01*
D21*
X182880000Y-102520000D02*
X174910000Y-102520000D01*
D20*
X182880000Y-88900000D02*
X184082081Y-88900000D01*
X149860000Y-82550000D02*
X149860000Y-85090000D01*
X149860000Y-85090000D02*
X149860000Y-95250000D01*
X184082081Y-88900000D02*
X187580000Y-92397919D01*
X177800000Y-85090000D02*
X182880000Y-85090000D01*
X184580000Y-102520000D02*
X187580000Y-99520000D01*
X187580000Y-92397919D02*
X187580000Y-99520000D01*
D21*
X174910000Y-102520000D02*
X172720000Y-100330000D01*
D20*
X149860000Y-95250000D02*
X144780000Y-100330000D01*
X149860000Y-85090000D02*
X177800000Y-85090000D01*
%TO.N,+5V*%
X152400000Y-82550000D02*
X177800000Y-82550000D01*
X182880000Y-82550000D02*
X177800000Y-82550000D01*
%TO.N,/REL3*%
X144780000Y-85090000D02*
X144780000Y-83820000D01*
X146050000Y-82550000D02*
X147320000Y-82550000D01*
X144780000Y-83820000D02*
X146050000Y-82550000D01*
D21*
%TO.N,/COM*%
X167640000Y-92710000D02*
X167640000Y-100330000D01*
D20*
%TO.N,+3.3V*%
X134620000Y-100330000D02*
X134620000Y-96520000D01*
X134620000Y-96520000D02*
X139700000Y-91440000D01*
X142240000Y-88900000D02*
X139700000Y-91440000D01*
X142240000Y-85090000D02*
X142240000Y-88900000D01*
%TO.N,/SEN*%
X139700000Y-100330000D02*
X147320000Y-92710000D01*
X147320000Y-85090000D02*
X147320000Y-91440000D01*
X147320000Y-92710000D02*
X147320000Y-91440000D01*
%TD*%
%TA.AperFunction,Conductor*%
%TO.N,GND*%
G36*
X189245931Y-97810002D02*
G01*
X189266905Y-97826905D01*
X189954595Y-98514595D01*
X189988621Y-98576907D01*
X189991500Y-98603690D01*
X189991500Y-102056310D01*
X189971498Y-102124431D01*
X189954595Y-102145405D01*
X189266905Y-102833095D01*
X189204593Y-102867121D01*
X189177810Y-102870000D01*
X185420000Y-102870000D01*
X185420000Y-101600000D01*
X184150000Y-100330000D01*
X186653095Y-97826905D01*
X186715407Y-97792879D01*
X186742190Y-97790000D01*
X189177810Y-97790000D01*
X189245931Y-97810002D01*
G37*
%TD.AperFunction*%
%TD*%
%TA.AperFunction,Conductor*%
%TO.N,+12V*%
G36*
X184165931Y-94000002D02*
G01*
X184186905Y-94016905D01*
X185383095Y-95213095D01*
X185417121Y-95275407D01*
X185420000Y-95302190D01*
X185420000Y-96467810D01*
X185399998Y-96535931D01*
X185383095Y-96556905D01*
X182916905Y-99023095D01*
X182854593Y-99057121D01*
X182827810Y-99060000D01*
X181662190Y-99060000D01*
X181594069Y-99039998D01*
X181573095Y-99023095D01*
X180376905Y-97826905D01*
X180342879Y-97764593D01*
X180340000Y-97737810D01*
X180340000Y-95302190D01*
X180360002Y-95234069D01*
X180376905Y-95213095D01*
X181573095Y-94016905D01*
X181635407Y-93982879D01*
X181662190Y-93980000D01*
X184097810Y-93980000D01*
X184165931Y-94000002D01*
G37*
%TD.AperFunction*%
%TD*%
%TA.AperFunction,Conductor*%
%TO.N,GND*%
G36*
X185420000Y-101600000D02*
G01*
X185420000Y-104087810D01*
X185399998Y-104155931D01*
X185383095Y-104176905D01*
X184695405Y-104864595D01*
X184633093Y-104898621D01*
X184606310Y-104901500D01*
X181153690Y-104901500D01*
X181085569Y-104881498D01*
X181064595Y-104864595D01*
X180376905Y-104176905D01*
X180342879Y-104114593D01*
X180340000Y-104087810D01*
X180340000Y-101652190D01*
X180360002Y-101584069D01*
X180376905Y-101563095D01*
X181573095Y-100366905D01*
X181635407Y-100332879D01*
X181662190Y-100330000D01*
X184150000Y-100330000D01*
X185420000Y-101600000D01*
G37*
%TD.AperFunction*%
%TD*%
M02*
