%TF.GenerationSoftware,KiCad,Pcbnew,(6.0.7)*%
%TF.CreationDate,2022-09-27T15:13:33-05:00*%
%TF.ProjectId,adap1,61646170-312e-46b6-9963-61645f706362,rev?*%
%TF.SameCoordinates,Original*%
%TF.FileFunction,Legend,Top*%
%TF.FilePolarity,Positive*%
%FSLAX46Y46*%
G04 Gerber Fmt 4.6, Leading zero omitted, Abs format (unit mm)*
G04 Created by KiCad (PCBNEW (6.0.7)) date 2022-09-27 15:13:33*
%MOMM*%
%LPD*%
G01*
G04 APERTURE LIST*
%ADD10C,0.150000*%
%ADD11C,0.120000*%
G04 APERTURE END LIST*
D10*
%TO.C,J4*%
X164746666Y-94982380D02*
X164746666Y-95696666D01*
X164699047Y-95839523D01*
X164603809Y-95934761D01*
X164460952Y-95982380D01*
X164365714Y-95982380D01*
X165651428Y-95315714D02*
X165651428Y-95982380D01*
X165413333Y-94934761D02*
X165175238Y-95649047D01*
X165794285Y-95649047D01*
%TO.C,J6*%
X139362380Y-85423333D02*
X140076666Y-85423333D01*
X140219523Y-85470952D01*
X140314761Y-85566190D01*
X140362380Y-85709047D01*
X140362380Y-85804285D01*
X139362380Y-84518571D02*
X139362380Y-84709047D01*
X139410000Y-84804285D01*
X139457619Y-84851904D01*
X139600476Y-84947142D01*
X139790952Y-84994761D01*
X140171904Y-84994761D01*
X140267142Y-84947142D01*
X140314761Y-84899523D01*
X140362380Y-84804285D01*
X140362380Y-84613809D01*
X140314761Y-84518571D01*
X140267142Y-84470952D01*
X140171904Y-84423333D01*
X139933809Y-84423333D01*
X139838571Y-84470952D01*
X139790952Y-84518571D01*
X139743333Y-84613809D01*
X139743333Y-84804285D01*
X139790952Y-84899523D01*
X139838571Y-84947142D01*
X139933809Y-84994761D01*
%TO.C,J3*%
X167276666Y-87512380D02*
X167276666Y-88226666D01*
X167229047Y-88369523D01*
X167133809Y-88464761D01*
X166990952Y-88512380D01*
X166895714Y-88512380D01*
X167657619Y-87512380D02*
X168276666Y-87512380D01*
X167943333Y-87893333D01*
X168086190Y-87893333D01*
X168181428Y-87940952D01*
X168229047Y-87988571D01*
X168276666Y-88083809D01*
X168276666Y-88321904D01*
X168229047Y-88417142D01*
X168181428Y-88464761D01*
X168086190Y-88512380D01*
X167800476Y-88512380D01*
X167705238Y-88464761D01*
X167657619Y-88417142D01*
%TO.C,R1*%
X143343333Y-89522380D02*
X143010000Y-89046190D01*
X142771904Y-89522380D02*
X142771904Y-88522380D01*
X143152857Y-88522380D01*
X143248095Y-88570000D01*
X143295714Y-88617619D01*
X143343333Y-88712857D01*
X143343333Y-88855714D01*
X143295714Y-88950952D01*
X143248095Y-88998571D01*
X143152857Y-89046190D01*
X142771904Y-89046190D01*
X144295714Y-89522380D02*
X143724285Y-89522380D01*
X144010000Y-89522380D02*
X144010000Y-88522380D01*
X143914761Y-88665238D01*
X143819523Y-88760476D01*
X143724285Y-88808095D01*
%TO.C,J1*%
X188082380Y-105303333D02*
X188796666Y-105303333D01*
X188939523Y-105350952D01*
X189034761Y-105446190D01*
X189082380Y-105589047D01*
X189082380Y-105684285D01*
X189082380Y-104303333D02*
X189082380Y-104874761D01*
X189082380Y-104589047D02*
X188082380Y-104589047D01*
X188225238Y-104684285D01*
X188320476Y-104779523D01*
X188368095Y-104874761D01*
%TO.C,J5*%
X141886666Y-94982380D02*
X141886666Y-95696666D01*
X141839047Y-95839523D01*
X141743809Y-95934761D01*
X141600952Y-95982380D01*
X141505714Y-95982380D01*
X142839047Y-94982380D02*
X142362857Y-94982380D01*
X142315238Y-95458571D01*
X142362857Y-95410952D01*
X142458095Y-95363333D01*
X142696190Y-95363333D01*
X142791428Y-95410952D01*
X142839047Y-95458571D01*
X142886666Y-95553809D01*
X142886666Y-95791904D01*
X142839047Y-95887142D01*
X142791428Y-95934761D01*
X142696190Y-95982380D01*
X142458095Y-95982380D01*
X142362857Y-95934761D01*
X142315238Y-95887142D01*
%TO.C,J2*%
X154182380Y-82883333D02*
X154896666Y-82883333D01*
X155039523Y-82930952D01*
X155134761Y-83026190D01*
X155182380Y-83169047D01*
X155182380Y-83264285D01*
X154277619Y-82454761D02*
X154230000Y-82407142D01*
X154182380Y-82311904D01*
X154182380Y-82073809D01*
X154230000Y-81978571D01*
X154277619Y-81930952D01*
X154372857Y-81883333D01*
X154468095Y-81883333D01*
X154610952Y-81930952D01*
X155182380Y-82502380D01*
X155182380Y-81883333D01*
%TO.C,U2*%
X172982380Y-85851904D02*
X173791904Y-85851904D01*
X173887142Y-85804285D01*
X173934761Y-85756666D01*
X173982380Y-85661428D01*
X173982380Y-85470952D01*
X173934761Y-85375714D01*
X173887142Y-85328095D01*
X173791904Y-85280476D01*
X172982380Y-85280476D01*
X173077619Y-84851904D02*
X173030000Y-84804285D01*
X172982380Y-84709047D01*
X172982380Y-84470952D01*
X173030000Y-84375714D01*
X173077619Y-84328095D01*
X173172857Y-84280476D01*
X173268095Y-84280476D01*
X173410952Y-84328095D01*
X173982380Y-84899523D01*
X173982380Y-84280476D01*
%TO.C,J8*%
X182546666Y-79232380D02*
X182546666Y-79946666D01*
X182499047Y-80089523D01*
X182403809Y-80184761D01*
X182260952Y-80232380D01*
X182165714Y-80232380D01*
X183165714Y-79660952D02*
X183070476Y-79613333D01*
X183022857Y-79565714D01*
X182975238Y-79470476D01*
X182975238Y-79422857D01*
X183022857Y-79327619D01*
X183070476Y-79280000D01*
X183165714Y-79232380D01*
X183356190Y-79232380D01*
X183451428Y-79280000D01*
X183499047Y-79327619D01*
X183546666Y-79422857D01*
X183546666Y-79470476D01*
X183499047Y-79565714D01*
X183451428Y-79613333D01*
X183356190Y-79660952D01*
X183165714Y-79660952D01*
X183070476Y-79708571D01*
X183022857Y-79756190D01*
X182975238Y-79851428D01*
X182975238Y-80041904D01*
X183022857Y-80137142D01*
X183070476Y-80184761D01*
X183165714Y-80232380D01*
X183356190Y-80232380D01*
X183451428Y-80184761D01*
X183499047Y-80137142D01*
X183546666Y-80041904D01*
X183546666Y-79851428D01*
X183499047Y-79756190D01*
X183451428Y-79708571D01*
X183356190Y-79660952D01*
%TO.C,J7*%
X182546666Y-93662380D02*
X182546666Y-94376666D01*
X182499047Y-94519523D01*
X182403809Y-94614761D01*
X182260952Y-94662380D01*
X182165714Y-94662380D01*
X182927619Y-93662380D02*
X183594285Y-93662380D01*
X183165714Y-94662380D01*
D11*
%TO.C,J4*%
X175260000Y-102870000D02*
X154940000Y-102870000D01*
X154940000Y-96520000D02*
X175260000Y-96520000D01*
X154940000Y-96520000D02*
X154940000Y-104140000D01*
X175260000Y-104140000D02*
X175260000Y-96520000D01*
X154940000Y-104140000D02*
X175260000Y-104140000D01*
%TO.C,J6*%
X143510000Y-86420000D02*
X143510000Y-83760000D01*
X143510000Y-83760000D02*
X151190000Y-83760000D01*
X140910000Y-86420000D02*
X140910000Y-85090000D01*
X143510000Y-86420000D02*
X151190000Y-86420000D01*
X151190000Y-86420000D02*
X151190000Y-83760000D01*
X142240000Y-86420000D02*
X140910000Y-86420000D01*
%TO.C,J3*%
X175260000Y-96520000D02*
X175260000Y-88900000D01*
X160020000Y-88900000D02*
X175260000Y-88900000D01*
X160020000Y-96520000D02*
X175260000Y-96520000D01*
X160020000Y-95250000D02*
X175260000Y-95250000D01*
X160020000Y-96520000D02*
X160020000Y-88900000D01*
%TO.C,R1*%
X146780000Y-92810000D02*
X146780000Y-92480000D01*
X140240000Y-92810000D02*
X146780000Y-92810000D01*
X140240000Y-90070000D02*
X146780000Y-90070000D01*
X140240000Y-90400000D02*
X140240000Y-90070000D01*
X146780000Y-90070000D02*
X146780000Y-90400000D01*
X140240000Y-92480000D02*
X140240000Y-92810000D01*
%TO.C,J1*%
X187480000Y-101320000D02*
X187480000Y-110320000D01*
X178040000Y-97220000D02*
X178040000Y-95480000D01*
X178040000Y-95480000D02*
X179780000Y-95480000D01*
X178280000Y-110320000D02*
X178280000Y-95720000D01*
X187480000Y-95720000D02*
X187480000Y-97720000D01*
X187480000Y-110320000D02*
X178280000Y-110320000D01*
X178280000Y-95720000D02*
X181080000Y-95720000D01*
X184680000Y-95720000D02*
X187480000Y-95720000D01*
%TO.C,J5*%
X132080000Y-104140000D02*
X152400000Y-104140000D01*
X152400000Y-104140000D02*
X152400000Y-96520000D01*
X132080000Y-96520000D02*
X152400000Y-96520000D01*
X132080000Y-96520000D02*
X132080000Y-104140000D01*
X152400000Y-102870000D02*
X132080000Y-102870000D01*
%TO.C,J2*%
X151130000Y-81220000D02*
X145990000Y-81220000D01*
X153730000Y-81220000D02*
X153730000Y-82550000D01*
X152400000Y-81220000D02*
X153730000Y-81220000D01*
X151130000Y-81220000D02*
X151130000Y-83880000D01*
X151130000Y-83880000D02*
X145990000Y-83880000D01*
X145990000Y-81220000D02*
X145990000Y-83880000D01*
%TO.C,U2*%
X176040000Y-90210000D02*
X176040000Y-79970000D01*
X179171000Y-90210000D02*
X179171000Y-79970000D01*
X174530000Y-90210000D02*
X179171000Y-90210000D01*
X174530000Y-79970000D02*
X179171000Y-79970000D01*
X174530000Y-83239000D02*
X176040000Y-83239000D01*
X174530000Y-90210000D02*
X174530000Y-79970000D01*
X174530000Y-86940000D02*
X176040000Y-86940000D01*
%TO.C,J8*%
X181550000Y-83820000D02*
X184210000Y-83820000D01*
X184210000Y-81220000D02*
X184210000Y-82550000D01*
X181550000Y-83820000D02*
X181550000Y-86420000D01*
X184210000Y-83820000D02*
X184210000Y-86420000D01*
X181550000Y-86420000D02*
X184210000Y-86420000D01*
X182880000Y-81220000D02*
X184210000Y-81220000D01*
%TO.C,J7*%
X181550000Y-92770000D02*
X181550000Y-91440000D01*
X182880000Y-92770000D02*
X181550000Y-92770000D01*
X184210000Y-87570000D02*
X181550000Y-87570000D01*
X184210000Y-90170000D02*
X181550000Y-90170000D01*
X181550000Y-90170000D02*
X181550000Y-87570000D01*
X184210000Y-90170000D02*
X184210000Y-87570000D01*
%TD*%
M02*
