%TF.GenerationSoftware,KiCad,Pcbnew,(6.0.7)*%
%TF.CreationDate,2022-09-24T10:52:58-05:00*%
%TF.ProjectId,adap0,61646170-302e-46b6-9963-61645f706362,rev?*%
%TF.SameCoordinates,Original*%
%TF.FileFunction,Copper,L2,Bot*%
%TF.FilePolarity,Positive*%
%FSLAX46Y46*%
G04 Gerber Fmt 4.6, Leading zero omitted, Abs format (unit mm)*
G04 Created by KiCad (PCBNEW (6.0.7)) date 2022-09-24 10:52:58*
%MOMM*%
%LPD*%
G01*
G04 APERTURE LIST*
%TA.AperFunction,ComponentPad*%
%ADD10R,3.000000X3.000000*%
%TD*%
%TA.AperFunction,ComponentPad*%
%ADD11C,3.000000*%
%TD*%
%TA.AperFunction,ComponentPad*%
%ADD12O,1.700000X1.700000*%
%TD*%
%TA.AperFunction,ComponentPad*%
%ADD13R,1.700000X1.700000*%
%TD*%
%TA.AperFunction,ComponentPad*%
%ADD14C,1.500000*%
%TD*%
%TA.AperFunction,ComponentPad*%
%ADD15R,1.500000X1.500000*%
%TD*%
%TA.AperFunction,ComponentPad*%
%ADD16O,1.600000X1.600000*%
%TD*%
%TA.AperFunction,ComponentPad*%
%ADD17C,1.600000*%
%TD*%
%TA.AperFunction,ComponentPad*%
%ADD18R,2.600000X2.600000*%
%TD*%
%TA.AperFunction,ComponentPad*%
%ADD19C,2.600000*%
%TD*%
%TA.AperFunction,ComponentPad*%
%ADD20R,2.540000X2.540000*%
%TD*%
%TA.AperFunction,ComponentPad*%
%ADD21C,2.540000*%
%TD*%
%TA.AperFunction,ComponentPad*%
%ADD22R,2.000000X1.905000*%
%TD*%
%TA.AperFunction,ComponentPad*%
%ADD23O,2.000000X1.905000*%
%TD*%
%TA.AperFunction,Conductor*%
%ADD24C,1.000000*%
%TD*%
%TA.AperFunction,Conductor*%
%ADD25C,2.000000*%
%TD*%
G04 APERTURE END LIST*
D10*
%TO.P,J4,1,Pin_1*%
%TO.N,/REL1*%
X157480000Y-100330000D03*
D11*
%TO.P,J4,2,Pin_2*%
%TO.N,/REL2*%
X162560000Y-100330000D03*
%TO.P,J4,3,Pin_3*%
%TO.N,/COM*%
X167640000Y-100330000D03*
%TO.P,J4,4,Pin_4*%
%TO.N,GND*%
X172720000Y-100330000D03*
%TD*%
D12*
%TO.P,J6,4,Pin_4*%
%TO.N,GND*%
X144780000Y-78740000D03*
%TO.P,J6,3,Pin_3*%
%TO.N,/SEN*%
X142240000Y-78740000D03*
%TO.P,J6,2,Pin_2*%
%TO.N,/REL3*%
X139700000Y-78740000D03*
D13*
%TO.P,J6,1,Pin_1*%
%TO.N,+3.3V*%
X137160000Y-78740000D03*
%TD*%
D10*
%TO.P,J3,1,Pin_1*%
%TO.N,/NC*%
X162560000Y-91440000D03*
D11*
%TO.P,J3,2,Pin_2*%
%TO.N,/COM*%
X157480000Y-91440000D03*
%TO.P,J3,3,Pin_3*%
%TO.N,+12V*%
X152400000Y-91440000D03*
%TD*%
D14*
%TO.P,U3,4,GND*%
%TO.N,GND*%
X144780000Y-86360000D03*
%TO.P,U3,3,NC*%
%TO.N,unconnected-(U3-Pad3)*%
X142240000Y-86360000D03*
%TO.P,U3,2,IO*%
%TO.N,/SEN*%
X139700000Y-86360000D03*
D15*
%TO.P,U3,1,VCC*%
%TO.N,+3.3V*%
X137160000Y-86360000D03*
%TD*%
D16*
%TO.P,R1,2*%
%TO.N,/SEN*%
X142240000Y-93980000D03*
D17*
%TO.P,R1,1*%
%TO.N,+3.3V*%
X132080000Y-93980000D03*
%TD*%
D18*
%TO.P,J1,1*%
%TO.N,+12V*%
X182880000Y-96520000D03*
D19*
%TO.P,J1,2*%
%TO.N,GND*%
X182880000Y-102520000D03*
%TO.P,J1,3*%
X187580000Y-99520000D03*
%TD*%
D11*
%TO.P,J5,4,Pin_4*%
%TO.N,unconnected-(J5-Pad4)*%
X149860000Y-100330000D03*
%TO.P,J5,3,Pin_3*%
%TO.N,GND*%
X144780000Y-100330000D03*
%TO.P,J5,2,Pin_2*%
%TO.N,/SEN*%
X139700000Y-100330000D03*
D10*
%TO.P,J5,1,Pin_1*%
%TO.N,+3.3V*%
X134620000Y-100330000D03*
%TD*%
D13*
%TO.P,J2,1,Pin_1*%
%TO.N,+5V*%
X160020000Y-58420000D03*
D12*
%TO.P,J2,2,Pin_2*%
%TO.N,GND*%
X157480000Y-58420000D03*
%TO.P,J2,3,Pin_3*%
%TO.N,/REL3*%
X154940000Y-58420000D03*
%TD*%
D20*
%TO.P,U1,1,Vin*%
%TO.N,+12V*%
X168910000Y-92710000D03*
D21*
%TO.P,U1,2,GND*%
%TO.N,GND*%
X186690000Y-92710000D03*
%TO.P,U1,3,GND*%
X186690000Y-52070000D03*
%TO.P,U1,4,Vout*%
%TO.N,+5V*%
X168910000Y-52070000D03*
%TD*%
D22*
%TO.P,U2,1,VI*%
%TO.N,+12V*%
X177800000Y-86360000D03*
D23*
%TO.P,U2,2,GND*%
%TO.N,GND*%
X177800000Y-83820000D03*
%TO.P,U2,3,VO*%
%TO.N,+5V*%
X177800000Y-81280000D03*
%TD*%
D24*
%TO.N,GND*%
X171450000Y-83820000D02*
X177800000Y-83820000D01*
X166370000Y-78740000D02*
X171450000Y-83820000D01*
X144780000Y-78740000D02*
X166370000Y-78740000D01*
D25*
%TO.N,/COM*%
X167640000Y-97790000D02*
X167640000Y-100330000D01*
X157480000Y-91440000D02*
X157480000Y-93345000D01*
X157480000Y-93345000D02*
X159385000Y-95250000D01*
X159385000Y-95250000D02*
X165100000Y-95250000D01*
X165100000Y-95250000D02*
X167640000Y-97790000D01*
D24*
%TO.N,/REL3*%
X139700000Y-73660000D02*
X139700000Y-78740000D01*
X154940000Y-58420000D02*
X139700000Y-73660000D01*
%TO.N,GND*%
X157480000Y-66040000D02*
X157480000Y-58420000D01*
X144780000Y-78740000D02*
X157480000Y-66040000D01*
D25*
X182880000Y-102520000D02*
X174910000Y-102520000D01*
X174910000Y-102520000D02*
X172720000Y-100330000D01*
D24*
X187580000Y-96220000D02*
X187580000Y-99520000D01*
X186690000Y-95330000D02*
X187580000Y-96220000D01*
X186690000Y-92710000D02*
X186690000Y-95330000D01*
D25*
%TO.N,+12V*%
X182880000Y-96520000D02*
X172720000Y-96520000D01*
D24*
%TO.N,GND*%
X184580000Y-102520000D02*
X187580000Y-99520000D01*
X182880000Y-102520000D02*
X184580000Y-102520000D01*
D25*
%TO.N,+12V*%
X172720000Y-96520000D02*
X168910000Y-92710000D01*
X168910000Y-90170000D02*
X165100000Y-86360000D01*
X156210000Y-86360000D02*
X152400000Y-90170000D01*
X177800000Y-86360000D02*
X175260000Y-86360000D01*
X175260000Y-86360000D02*
X168910000Y-92710000D01*
X168910000Y-92710000D02*
X168910000Y-90170000D01*
X165100000Y-86360000D02*
X156210000Y-86360000D01*
X152400000Y-90170000D02*
X152400000Y-91440000D01*
D24*
%TO.N,GND*%
X144780000Y-78740000D02*
X144780000Y-86360000D01*
X186690000Y-92710000D02*
X186690000Y-85090000D01*
X185420000Y-83820000D02*
X186690000Y-85090000D01*
X186690000Y-85090000D02*
X186690000Y-52070000D01*
X177800000Y-83820000D02*
X185420000Y-83820000D01*
X144780000Y-86360000D02*
X144780000Y-100330000D01*
%TO.N,+5V*%
X160020000Y-58420000D02*
X160020000Y-55880000D01*
X160020000Y-55880000D02*
X163830000Y-52070000D01*
X168910000Y-52070000D02*
X173990000Y-52070000D01*
X163830000Y-52070000D02*
X168910000Y-52070000D01*
X177800000Y-55880000D02*
X177800000Y-81280000D01*
X173990000Y-52070000D02*
X177800000Y-55880000D01*
%TO.N,+3.3V*%
X134620000Y-93980000D02*
X134620000Y-88900000D01*
X137160000Y-78740000D02*
X137160000Y-86360000D01*
X134620000Y-88900000D02*
X137160000Y-86360000D01*
X134620000Y-100330000D02*
X134620000Y-93980000D01*
X132080000Y-93980000D02*
X134620000Y-93980000D01*
%TO.N,/SEN*%
X139700000Y-83820000D02*
X139700000Y-86360000D01*
X139700000Y-93980000D02*
X139700000Y-100330000D01*
X139700000Y-86360000D02*
X139700000Y-93980000D01*
X142240000Y-93980000D02*
X139700000Y-93980000D01*
X142240000Y-78740000D02*
X142240000Y-81280000D01*
X142240000Y-81280000D02*
X139700000Y-83820000D01*
%TD*%
%TA.AperFunction,Conductor*%
%TO.N,+12V*%
G36*
X184165931Y-94000002D02*
G01*
X184186905Y-94016905D01*
X185383095Y-95213095D01*
X185417121Y-95275407D01*
X185420000Y-95302190D01*
X185420000Y-96467810D01*
X185399998Y-96535931D01*
X185383095Y-96556905D01*
X182916905Y-99023095D01*
X182854593Y-99057121D01*
X182827810Y-99060000D01*
X181662190Y-99060000D01*
X181594069Y-99039998D01*
X181573095Y-99023095D01*
X180376905Y-97826905D01*
X180342879Y-97764593D01*
X180340000Y-97737810D01*
X180340000Y-95302190D01*
X180360002Y-95234069D01*
X180376905Y-95213095D01*
X181573095Y-94016905D01*
X181635407Y-93982879D01*
X181662190Y-93980000D01*
X184097810Y-93980000D01*
X184165931Y-94000002D01*
G37*
%TD.AperFunction*%
%TD*%
%TA.AperFunction,Conductor*%
%TO.N,GND*%
G36*
X189245931Y-97810002D02*
G01*
X189266905Y-97826905D01*
X189954595Y-98514595D01*
X189988621Y-98576907D01*
X189991500Y-98603690D01*
X189991500Y-102056310D01*
X189971498Y-102124431D01*
X189954595Y-102145405D01*
X189266905Y-102833095D01*
X189204593Y-102867121D01*
X189177810Y-102870000D01*
X185420000Y-102870000D01*
X185420000Y-101600000D01*
X184150000Y-100330000D01*
X186653095Y-97826905D01*
X186715407Y-97792879D01*
X186742190Y-97790000D01*
X189177810Y-97790000D01*
X189245931Y-97810002D01*
G37*
%TD.AperFunction*%
%TD*%
%TA.AperFunction,Conductor*%
%TO.N,GND*%
G36*
X185420000Y-101600000D02*
G01*
X185420000Y-104087810D01*
X185399998Y-104155931D01*
X185383095Y-104176905D01*
X184695405Y-104864595D01*
X184633093Y-104898621D01*
X184606310Y-104901500D01*
X181153690Y-104901500D01*
X181085569Y-104881498D01*
X181064595Y-104864595D01*
X180376905Y-104176905D01*
X180342879Y-104114593D01*
X180340000Y-104087810D01*
X180340000Y-101652190D01*
X180360002Y-101584069D01*
X180376905Y-101563095D01*
X181573095Y-100366905D01*
X181635407Y-100332879D01*
X181662190Y-100330000D01*
X184150000Y-100330000D01*
X185420000Y-101600000D01*
G37*
%TD.AperFunction*%
%TD*%
M02*
