%TF.GenerationSoftware,KiCad,Pcbnew,(6.0.7)*%
%TF.CreationDate,2022-09-24T10:52:59-05:00*%
%TF.ProjectId,adap0,61646170-302e-46b6-9963-61645f706362,rev?*%
%TF.SameCoordinates,Original*%
%TF.FileFunction,Legend,Top*%
%TF.FilePolarity,Positive*%
%FSLAX46Y46*%
G04 Gerber Fmt 4.6, Leading zero omitted, Abs format (unit mm)*
G04 Created by KiCad (PCBNEW (6.0.7)) date 2022-09-24 10:52:59*
%MOMM*%
%LPD*%
G01*
G04 APERTURE LIST*
%ADD10C,0.150000*%
%ADD11C,0.120000*%
G04 APERTURE END LIST*
D10*
%TO.C,J4*%
X164746666Y-94982380D02*
X164746666Y-95696666D01*
X164699047Y-95839523D01*
X164603809Y-95934761D01*
X164460952Y-95982380D01*
X164365714Y-95982380D01*
X165651428Y-95315714D02*
X165651428Y-95982380D01*
X165413333Y-94934761D02*
X165175238Y-95649047D01*
X165794285Y-95649047D01*
%TO.C,J6*%
X134282380Y-79073333D02*
X134996666Y-79073333D01*
X135139523Y-79120952D01*
X135234761Y-79216190D01*
X135282380Y-79359047D01*
X135282380Y-79454285D01*
X134282380Y-78168571D02*
X134282380Y-78359047D01*
X134330000Y-78454285D01*
X134377619Y-78501904D01*
X134520476Y-78597142D01*
X134710952Y-78644761D01*
X135091904Y-78644761D01*
X135187142Y-78597142D01*
X135234761Y-78549523D01*
X135282380Y-78454285D01*
X135282380Y-78263809D01*
X135234761Y-78168571D01*
X135187142Y-78120952D01*
X135091904Y-78073333D01*
X134853809Y-78073333D01*
X134758571Y-78120952D01*
X134710952Y-78168571D01*
X134663333Y-78263809D01*
X134663333Y-78454285D01*
X134710952Y-78549523D01*
X134758571Y-78597142D01*
X134853809Y-78644761D01*
%TO.C,J3*%
X157176666Y-95542380D02*
X157176666Y-96256666D01*
X157129047Y-96399523D01*
X157033809Y-96494761D01*
X156890952Y-96542380D01*
X156795714Y-96542380D01*
X157557619Y-95542380D02*
X158176666Y-95542380D01*
X157843333Y-95923333D01*
X157986190Y-95923333D01*
X158081428Y-95970952D01*
X158129047Y-96018571D01*
X158176666Y-96113809D01*
X158176666Y-96351904D01*
X158129047Y-96447142D01*
X158081428Y-96494761D01*
X157986190Y-96542380D01*
X157700476Y-96542380D01*
X157605238Y-96494761D01*
X157557619Y-96447142D01*
%TO.C,U3*%
X133112380Y-88121904D02*
X133921904Y-88121904D01*
X134017142Y-88074285D01*
X134064761Y-88026666D01*
X134112380Y-87931428D01*
X134112380Y-87740952D01*
X134064761Y-87645714D01*
X134017142Y-87598095D01*
X133921904Y-87550476D01*
X133112380Y-87550476D01*
X133112380Y-87169523D02*
X133112380Y-86550476D01*
X133493333Y-86883809D01*
X133493333Y-86740952D01*
X133540952Y-86645714D01*
X133588571Y-86598095D01*
X133683809Y-86550476D01*
X133921904Y-86550476D01*
X134017142Y-86598095D01*
X134064761Y-86645714D01*
X134112380Y-86740952D01*
X134112380Y-87026666D01*
X134064761Y-87121904D01*
X134017142Y-87169523D01*
%TO.C,R1*%
X136993333Y-92062380D02*
X136660000Y-91586190D01*
X136421904Y-92062380D02*
X136421904Y-91062380D01*
X136802857Y-91062380D01*
X136898095Y-91110000D01*
X136945714Y-91157619D01*
X136993333Y-91252857D01*
X136993333Y-91395714D01*
X136945714Y-91490952D01*
X136898095Y-91538571D01*
X136802857Y-91586190D01*
X136421904Y-91586190D01*
X137945714Y-92062380D02*
X137374285Y-92062380D01*
X137660000Y-92062380D02*
X137660000Y-91062380D01*
X137564761Y-91205238D01*
X137469523Y-91300476D01*
X137374285Y-91348095D01*
%TO.C,J1*%
X188082380Y-105303333D02*
X188796666Y-105303333D01*
X188939523Y-105350952D01*
X189034761Y-105446190D01*
X189082380Y-105589047D01*
X189082380Y-105684285D01*
X189082380Y-104303333D02*
X189082380Y-104874761D01*
X189082380Y-104589047D02*
X188082380Y-104589047D01*
X188225238Y-104684285D01*
X188320476Y-104779523D01*
X188368095Y-104874761D01*
%TO.C,J5*%
X141886666Y-94982380D02*
X141886666Y-95696666D01*
X141839047Y-95839523D01*
X141743809Y-95934761D01*
X141600952Y-95982380D01*
X141505714Y-95982380D01*
X142839047Y-94982380D02*
X142362857Y-94982380D01*
X142315238Y-95458571D01*
X142362857Y-95410952D01*
X142458095Y-95363333D01*
X142696190Y-95363333D01*
X142791428Y-95410952D01*
X142839047Y-95458571D01*
X142886666Y-95553809D01*
X142886666Y-95791904D01*
X142839047Y-95887142D01*
X142791428Y-95934761D01*
X142696190Y-95982380D01*
X142458095Y-95982380D01*
X142362857Y-95934761D01*
X142315238Y-95887142D01*
%TO.C,J2*%
X161802380Y-58753333D02*
X162516666Y-58753333D01*
X162659523Y-58800952D01*
X162754761Y-58896190D01*
X162802380Y-59039047D01*
X162802380Y-59134285D01*
X161897619Y-58324761D02*
X161850000Y-58277142D01*
X161802380Y-58181904D01*
X161802380Y-57943809D01*
X161850000Y-57848571D01*
X161897619Y-57800952D01*
X161992857Y-57753333D01*
X162088095Y-57753333D01*
X162230952Y-57800952D01*
X162802380Y-58372380D01*
X162802380Y-57753333D01*
%TO.C,U2*%
X172982380Y-84581904D02*
X173791904Y-84581904D01*
X173887142Y-84534285D01*
X173934761Y-84486666D01*
X173982380Y-84391428D01*
X173982380Y-84200952D01*
X173934761Y-84105714D01*
X173887142Y-84058095D01*
X173791904Y-84010476D01*
X172982380Y-84010476D01*
X173077619Y-83581904D02*
X173030000Y-83534285D01*
X172982380Y-83439047D01*
X172982380Y-83200952D01*
X173030000Y-83105714D01*
X173077619Y-83058095D01*
X173172857Y-83010476D01*
X173268095Y-83010476D01*
X173410952Y-83058095D01*
X173982380Y-83629523D01*
X173982380Y-83010476D01*
D11*
%TO.C,J4*%
X175260000Y-102870000D02*
X154940000Y-102870000D01*
X154940000Y-96520000D02*
X175260000Y-96520000D01*
X154940000Y-96520000D02*
X154940000Y-104140000D01*
X175260000Y-104140000D02*
X175260000Y-96520000D01*
X154940000Y-104140000D02*
X175260000Y-104140000D01*
%TO.C,J6*%
X137160000Y-80070000D02*
X135830000Y-80070000D01*
X146110000Y-80070000D02*
X146110000Y-77410000D01*
X138430000Y-80070000D02*
X146110000Y-80070000D01*
X135830000Y-80070000D02*
X135830000Y-78740000D01*
X138430000Y-77410000D02*
X146110000Y-77410000D01*
X138430000Y-80070000D02*
X138430000Y-77410000D01*
%TO.C,J3*%
X149860000Y-87630000D02*
X149860000Y-95250000D01*
X165100000Y-95250000D02*
X149860000Y-95250000D01*
X165100000Y-87630000D02*
X149860000Y-87630000D01*
X165100000Y-88900000D02*
X149860000Y-88900000D01*
X165100000Y-87630000D02*
X165100000Y-95250000D01*
%TO.C,U3*%
X134840000Y-89230000D02*
X134840000Y-83490000D01*
X134560000Y-89520000D02*
X134560000Y-87910000D01*
X134840000Y-83480000D02*
X147100000Y-83480000D01*
X147100000Y-83480000D02*
X147100000Y-89240000D01*
X134560000Y-89520000D02*
X136560000Y-89520000D01*
X147100000Y-89240000D02*
X134850000Y-89240000D01*
%TO.C,R1*%
X133890000Y-92610000D02*
X133890000Y-95350000D01*
X141200000Y-93980000D02*
X140430000Y-93980000D01*
X140430000Y-92610000D02*
X133890000Y-92610000D01*
X140430000Y-95350000D02*
X140430000Y-92610000D01*
X133120000Y-93980000D02*
X133890000Y-93980000D01*
X133890000Y-95350000D02*
X140430000Y-95350000D01*
%TO.C,J1*%
X187480000Y-101320000D02*
X187480000Y-110320000D01*
X178040000Y-97220000D02*
X178040000Y-95480000D01*
X178040000Y-95480000D02*
X179780000Y-95480000D01*
X178280000Y-110320000D02*
X178280000Y-95720000D01*
X187480000Y-95720000D02*
X187480000Y-97720000D01*
X187480000Y-110320000D02*
X178280000Y-110320000D01*
X178280000Y-95720000D02*
X181080000Y-95720000D01*
X184680000Y-95720000D02*
X187480000Y-95720000D01*
%TO.C,J5*%
X152400000Y-102870000D02*
X132080000Y-102870000D01*
X132080000Y-96520000D02*
X132080000Y-104140000D01*
X132080000Y-96520000D02*
X152400000Y-96520000D01*
X152400000Y-104140000D02*
X152400000Y-96520000D01*
X132080000Y-104140000D02*
X152400000Y-104140000D01*
%TO.C,J2*%
X158750000Y-57090000D02*
X153610000Y-57090000D01*
X161350000Y-57090000D02*
X161350000Y-58420000D01*
X160020000Y-57090000D02*
X161350000Y-57090000D01*
X158750000Y-57090000D02*
X158750000Y-59750000D01*
X158750000Y-59750000D02*
X153610000Y-59750000D01*
X153610000Y-57090000D02*
X153610000Y-59750000D01*
%TO.C,U1*%
X172542294Y-59460217D02*
X172542294Y-69360217D01*
X182606670Y-75899767D02*
X182606670Y-75059767D01*
X167541295Y-60767688D02*
X167541295Y-60801643D01*
X174995796Y-61042603D02*
X174995796Y-70742603D01*
X182606670Y-79299767D02*
X177976670Y-79299767D01*
X177976670Y-83882203D02*
X177976670Y-73877330D01*
X177899106Y-83959767D02*
X168547610Y-83959767D01*
X167330000Y-53650000D02*
X167330000Y-50535000D01*
X169914149Y-83960767D02*
X170075687Y-83960767D01*
X182606670Y-76759767D02*
X177976670Y-76759767D01*
X170485000Y-94260000D02*
X170490000Y-91130000D01*
X176495796Y-72242603D02*
X186195796Y-72242603D01*
X167592295Y-59410217D02*
X172492294Y-59410217D01*
X177899106Y-73799767D02*
X168547610Y-73799767D01*
X182606670Y-82699767D02*
X177976670Y-82699767D01*
X182606670Y-75059767D02*
X177976670Y-75059767D01*
X182606670Y-77599767D02*
X177976670Y-77599767D01*
X168290296Y-55261319D02*
X169890295Y-55261319D01*
X186195796Y-59542603D02*
X176495796Y-59542603D01*
X187695796Y-70742603D02*
X187695796Y-61042603D01*
X167542295Y-69360217D02*
X167542295Y-59460217D01*
X168917294Y-68361406D02*
X168892295Y-68349447D01*
X168892295Y-66270986D02*
X168892295Y-68349447D01*
X188525000Y-94265000D02*
X188525000Y-50515000D01*
X177899106Y-83959767D02*
X177976670Y-83882203D01*
X169570295Y-55261319D02*
X169570295Y-56061319D01*
X177976670Y-73877330D02*
X177899106Y-73799767D01*
X169890295Y-56061319D02*
X168290296Y-56061319D01*
X182606670Y-79299767D02*
X182606670Y-78459767D01*
X182606670Y-80999767D02*
X182606670Y-80159767D01*
X168290296Y-55261319D02*
X168290296Y-56061319D01*
X185193217Y-80298642D02*
X187493217Y-80298642D01*
X168917294Y-68361406D02*
X168912062Y-68385853D01*
X167075000Y-94265000D02*
X188525000Y-94265000D01*
X182606670Y-75899767D02*
X177976670Y-75899767D01*
X182606670Y-80999767D02*
X177976670Y-80999767D01*
X169392294Y-68349447D02*
X169392294Y-66270986D01*
X187493217Y-83228364D02*
X185193217Y-83228364D01*
X185110000Y-53650000D02*
X185110000Y-50535000D01*
X182606670Y-82699767D02*
X182606670Y-81859767D01*
X167330000Y-94260000D02*
X167330000Y-92960000D01*
X168917294Y-68361406D02*
X168886075Y-68354236D01*
X187593217Y-79528364D02*
X187593217Y-83128364D01*
X169890295Y-55261319D02*
X169890295Y-56061319D01*
X187218217Y-83678364D02*
X185468217Y-83678364D01*
X187218217Y-78978364D02*
X187218217Y-79428364D01*
X188270000Y-53650000D02*
X185110000Y-53650000D01*
X185468217Y-83678364D02*
X185468217Y-83228364D01*
X167075000Y-50515000D02*
X167075000Y-94265000D01*
X185093217Y-83128364D02*
X185093217Y-79528364D01*
X185110000Y-94260000D02*
X185110000Y-91130000D01*
X172492294Y-69410217D02*
X167592295Y-69410217D01*
X170180000Y-91130000D02*
X170490000Y-91130000D01*
X167541295Y-60851022D02*
X167541295Y-60895894D01*
X168256671Y-75449767D02*
X168547610Y-73799767D01*
X182606670Y-78459767D02*
X177976670Y-78459767D01*
X185110000Y-91130000D02*
X188270000Y-91130000D01*
X185704696Y-79427364D02*
X185610144Y-79427364D01*
X170490000Y-53650000D02*
X170490000Y-50490000D01*
X182606670Y-80159767D02*
X177976670Y-80159767D01*
X185468217Y-78978364D02*
X187218217Y-78978364D01*
X182606670Y-77599767D02*
X182606670Y-76759767D01*
X169336670Y-73799767D02*
X169336670Y-83959767D01*
X168547610Y-83959767D02*
X168256671Y-82309767D01*
X168860900Y-68373615D02*
X168892295Y-68349447D01*
X187218217Y-83228364D02*
X187218217Y-83678364D01*
X168256671Y-82309767D02*
X168256671Y-75449767D01*
X182606670Y-81859767D02*
X177976670Y-81859767D01*
X185468217Y-79428364D02*
X185468217Y-78978364D01*
X188270000Y-94260000D02*
X188270000Y-91130000D01*
X188525000Y-50515000D02*
X167075000Y-50515000D01*
X168610296Y-56061319D02*
X168610296Y-55261319D01*
X185193217Y-79428364D02*
X187493217Y-79428364D01*
X170490000Y-53650000D02*
X167330000Y-53650000D01*
X188270000Y-53650000D02*
X188270000Y-50535000D01*
X187593236Y-79528364D02*
G75*
G03*
X187493217Y-79428364I-100036J-36D01*
G01*
X187695797Y-61042603D02*
G75*
G03*
X186195796Y-59542603I-1499997J3D01*
G01*
X176309531Y-68862390D02*
G75*
G03*
X178376011Y-70928868I793629J-1272850D01*
G01*
X172492294Y-69410194D02*
G75*
G03*
X172542294Y-69360217I6J49994D01*
G01*
X184315560Y-70928882D02*
G75*
G03*
X184181409Y-70894783I-84860J-52918D01*
G01*
X178376039Y-60856321D02*
G75*
G03*
X178510184Y-60890423I84861J52921D01*
G01*
X186382075Y-62922838D02*
G75*
G03*
X186347976Y-63056989I52925J-84862D01*
G01*
X186347976Y-68728217D02*
G75*
G03*
X186347976Y-63056989I-5002180J2835614D01*
G01*
X187493217Y-83228417D02*
G75*
G03*
X187593217Y-83128364I-17J100017D01*
G01*
X167592295Y-59410195D02*
G75*
G03*
X167542295Y-59460217I5J-50005D01*
G01*
X178510200Y-70894751D02*
G75*
G03*
X178376010Y-70928869I-49300J-87049D01*
G01*
X176309512Y-68862359D02*
G75*
G03*
X176343617Y-68728217I-52912J84859D01*
G01*
X184315590Y-70928863D02*
G75*
G03*
X186382062Y-68862389I1272810J793663D01*
G01*
X176343641Y-63057002D02*
G75*
G03*
X176309531Y-62922817I-87041J49302D01*
G01*
X185093236Y-83128364D02*
G75*
G03*
X185193217Y-83228364I99964J-36D01*
G01*
X184181398Y-60890445D02*
G75*
G03*
X184315583Y-60856337I49302J87045D01*
G01*
X186347947Y-68728201D02*
G75*
G03*
X186382062Y-68862389I87053J-49299D01*
G01*
X185193217Y-79428417D02*
G75*
G03*
X185093217Y-79528364I-17J-99983D01*
G01*
X184181412Y-60890421D02*
G75*
G03*
X178510183Y-60890424I-2835612J-5002179D01*
G01*
X176495796Y-59542596D02*
G75*
G03*
X174995796Y-61042603I4J-1500004D01*
G01*
X178376018Y-60856333D02*
G75*
G03*
X176309531Y-62922817I-1272818J-793667D01*
G01*
X172542283Y-59460217D02*
G75*
G03*
X172492294Y-59410217I-49983J17D01*
G01*
X174995797Y-70742603D02*
G75*
G03*
X176495796Y-72242603I1500003J3D01*
G01*
X176343617Y-63056989D02*
G75*
G03*
X176343617Y-68728216I5002178J-2835613D01*
G01*
X186382062Y-62922818D02*
G75*
G03*
X184315582Y-60856338I-793622J1272858D01*
G01*
X167542283Y-69360217D02*
G75*
G03*
X167592295Y-69410217I50017J17D01*
G01*
X169423690Y-68373615D02*
G75*
G03*
X169372527Y-68385852I-281390J1063415D01*
G01*
X186195796Y-72242596D02*
G75*
G03*
X187695796Y-70742603I4J1499996D01*
G01*
X178510185Y-70894779D02*
G75*
G03*
X184181410Y-70894782I2835615J5002179D01*
G01*
X181867418Y-90063334D02*
G75*
G03*
X181867418Y-90063334I-4000000J0D01*
G01*
X186595796Y-65892603D02*
G75*
G03*
X186595796Y-65892603I-5250000J0D01*
G01*
X182365206Y-54680693D02*
G75*
G03*
X182365206Y-54680693I-4000000J0D01*
G01*
X171143999Y-87630000D02*
G75*
G03*
X171143999Y-87630000I-1598999J0D01*
G01*
X187654000Y-57150000D02*
G75*
G03*
X187654000Y-57150000I-1599000J0D01*
G01*
X177439594Y-83036821D02*
G75*
G03*
X177439594Y-83036821I-375000J0D01*
G01*
%TO.C,U2*%
X176040000Y-88940000D02*
X176040000Y-78700000D01*
X179171000Y-88940000D02*
X179171000Y-78700000D01*
X174530000Y-88940000D02*
X179171000Y-88940000D01*
X174530000Y-78700000D02*
X179171000Y-78700000D01*
X174530000Y-81969000D02*
X176040000Y-81969000D01*
X174530000Y-88940000D02*
X174530000Y-78700000D01*
X174530000Y-85670000D02*
X176040000Y-85670000D01*
%TD*%
M02*
